<svg viewBox="0 0 40 40" version="1.1" xmlns="http://www.w3.org/2000/svg" data-name="part 1" id="part_1">
  <defs>
    <style>
      .cls-1 {
        fill: #3b626b;
        stroke-width: 0px;
      }
    </style>
  </defs>
  <g data-name="Pain  Management" id="Pain_Management">
    <g>
      <path d="M30.56,26.57c-.35-.43-.87-.65-1.43-.61-.09-1.37-.85-2.59-2.06-3.31,1.56-3.62,1.31-6.95-.68-9.14-.17-.19-.47-.2-.66-.03s-.2.47-.03.65c1.74,1.91,1.93,4.87.53,8.13-.47-.16-.93-.21-1.04-.21-.25.02-.45.24-.43.49.01.21-.06.42-.21.57l-2.76,2.76q-.11.09-.37,2.22c-.08.69-.2,1.61-.35,2.83-.02.13.02.26.11.36.09.1.21.16.35.16.63,0,1.42.4,1.76.87h-1.76c-.74,0-1.33-.6-1.33-1.33v-2.73c0-2.24,0-2.26.04-2.44v-.04c.1-.39.26-.69.53-.95l2.75-2.75c.18-.18.18-.47,0-.65-.15-.15-.4-.18-.58-.06-.35-1.96-.35-4.71-.34-6.38v-.47c0-.26-.21-.46-.46-.46s-.46.21-.46.46v1.16c0,.49,0,.72,0,.8-.02.04-.03.09-.04.13l-1.19,7.23-.08.08c-.37.37-.69.69-.91,1.28h-1.64c0-2.29,0-7.57,0-9.8,0-.74.31-1.84.76-2.29.47-.47,1.66-.84,2.37-.84h1.15c.69.1,1.13.26,1.39.36.16.06.25.09.33.09.23,0,.41-.15.45-.37s-.07-.43-.28-.52c-.74-.3-1.61-.48-1.84-.48v.02s0,0,0,0v-.02s-.04,0-.05.01c-.17-.01-.5-.01-1.15-.01-.92,0-2.36.45-3.02,1.11-.67.67-1.03,2.02-1.03,2.95,0,9.26,0,11.67,0,12.97,0,.93,0,1.29,0,3.21,0,.26.06.51.17.74h-3.77c-.26,0-.46.21-.46.46s.21.46.46.46h11.8s.08-.02.1-.06c.12-.19.28-.47.19-.78-.01-.05-.06-.09-.12-.09h-.94c-.28-.91-1.34-1.56-2.27-1.74l.52-4.17.26-.26c-.01.79,0,1.75.93,2.66.98.95,2.48,1.17,3.7.55.31.56.91.87,1.56.85.71-.04,1.29-.46,1.52-1.11l.32-.92c.19-.55.09-1.14-.28-1.59ZM26.21,26.85c.25,0,.46-.21.46-.46s-.21-.46-.47-.46c-.92,0-1.8.37-2.43,1.01-.01-.09-.03-.21-.03-.32v-1.4l1.45-1.45c.2-.2.34-.45.42-.72.5.12.96.34,1.36.66l-.41,1.02c-.06.14-.04.31.05.43s.23.2.38.2c.18,0,.35-.11.42-.28h0s.04-.09.07-.18l.18-.44c.35.53.54,1.14.54,1.77v.06c-.23.17-.41.4-.52.66-.04.08-.37,1.03-.41,1.15-.02.1-.04.19-.05.29-.49.32-1.08.44-1.67.34-.56-.1-1.05-.4-1.39-.85.46-.65,1.21-1.04,2.03-1.04ZM28.16,28.58c0-.16,0-.17.19-.72l.17-.48c.11-.31.41-.5.72-.5.08,0,.17.01.25.04.2.07.35.2.44.38.08.17.09.37.03.55l-.32.92c-.14.39-.58.59-.98.46-.29-.1-.49-.36-.51-.65ZM19.26,30.98c0,.48.15.95.44,1.33h-1.17c-.2,0-.38-.08-.52-.22-.14-.14-.22-.32-.22-.52v-5.45h1.47c0,.16,0,.6,0,2.03v2.83ZM21.55,22.71l.33-2.04c.07.57.15,1.06.25,1.46l-.59.59Z" class="cls-1"></path>
      <path d="M25.31,12.56c-.1-.07-.19-.13-.34-.13-.21,0-.38.13-.44.33-.06.2.01.4.18.52l.03.02c.07.05.16.11.31.11.2,0,.38-.13.44-.32.06-.2,0-.4-.18-.53Z" class="cls-1"></path>
      <rect transform="translate(-12.73 52.73) rotate(-90)" ry=".25" rx=".25" height="26.81" width=".99" y="19.33" x="19.5" class="cls-1"></rect>
    </g>
    <g id="arrow">
      <rect ry=".25" rx=".25" height="15.84" width=".99" y="13.66" x="10.99" class="cls-1"></rect>
      <path transform="translate(23.97 -.42) rotate(45)" d="M12.24,26.81h.5c.14,0,.25.11.25.25v3.59h-.99v-3.59c0-.14.11-.25.25-.25Z" class="cls-1"></path>
      <path transform="translate(38.2 41.63) rotate(135)" d="M9.98,26.81h.99v3.59c0,.14-.11.25-.25.25h-.5c-.14,0-.25-.11-.25-.25v-3.59h0Z" class="cls-1"></path>
    </g>
    <path d="M19.59,9.94c-.26,0-.47-.21-.47-.47v-.89l-.69.44c-.13.08-.28.1-.43.04-.14-.05-.25-.17-.29-.32l-.51-1.83c-.07-.25.08-.51.33-.58.25-.07.51.08.58.33l.34,1.21.88-.57c.15-.09.33-.1.48-.02.15.08.25.24.25.42v1.76c0,.26-.21.47-.47.47Z" class="cls-1"></path>
    <path d="M15.02,11.44c-.08,0-.16-.02-.23-.06l-1.66-.92c-.23-.13-.31-.41-.19-.64.13-.23.41-.31.64-.19l1.1.61.21-1.02c.03-.17.16-.31.33-.36s.35,0,.47.11l1.26,1.23c.19.18.19.48,0,.67-.18.19-.48.19-.67,0l-.64-.62-.16.8c-.03.15-.13.27-.27.34-.06.03-.13.04-.2.04Z" class="cls-1"></path>
    <path d="M22.65,10.37c-.15,0-.3-.07-.39-.21-.15-.22-.09-.51.12-.66l.73-.5-.75-.32c-.14-.06-.24-.18-.28-.33-.04-.15,0-.3.1-.42l1.22-1.45c.17-.2.47-.23.67-.06.2.17.23.47.06.67l-.81.96.96.4c.16.07.27.22.29.39s-.06.34-.2.44l-1.45.99c-.08.06-.17.08-.27.08Z" class="cls-1"></path>
  </g>
</svg>