<svg viewBox="0 0 40 40" version="1.1" xmlns="http://www.w3.org/2000/svg" data-name="part 1" id="part_1">
  <defs>
    <style>
      .cls-1 {
        fill: #3b626b;
        stroke-width: 0px;
      }
    </style>
  </defs>
  <g data-name="Increased  Flexibility" id="Increased_Flexibility">
    <g>
      <path d="M33.04,31.89h-3.8c-.16-.63-.65-1.13-1.28-1.28l-.91-.23,1.16-5.61c.22-1.08-.39-2.17-1.45-2.54-2.59-.9-1.7-.5-4.08-1.04.83-.5,1.97-1.22,2.32-1.58.42-.42,1.69-1.69,1.69-2.9,0-.34-.1-.72-.31-1.13l6.64-6.64c.29-.29.45-.67.45-1.08,0-1.35-1.65-2.04-2.61-1.08-.16.16-.16.43,0,.59h0c.16.16.43.16.59,0,.43-.43,1.17-.12,1.17.49,0,.18-.07.36-.2.49l-7.74,7.74c-.27.27-.07.72.3.72.23,0,.29-.12.76-.58.07.18.1.35.1.49,0,.58-.48,1.35-1.44,2.31-.34.34-1.89,1.3-2.92,1.91l-1.42-.18c-.23-.03-.44.13-.47.37-.03.23.13.44.37.47l1.54.19c3.58.88,2.17.29,4.99,1.26.65.23,1.03.9.89,1.57l-.54,2.59h-1.38l.22-1.95c.03-.23-.14-.45-.38-.47-5.02-.46-4.55.1-6.27-.5-.11-.04-.28-.1-.4-.17-1.03-.53-1.25-2.07-.92-2.94.4-.28.8-.61,1.18-.97.17-.16.18-.43.02-.59-.16-.17-.43-.18-.59-.02-.43.41-.98.83-1.01.84-.11.02-.14.06-.55.33-1.05.69-.84.55-6.27,5.11l-3.29,2.19c-.58.38-.8,1.1-.55,1.75.68,1.76.68,1.81.87,2.08h-.55c-.23,0-.42.19-.42.42s.19.42.42.42h26.09c.23,0,.42-.19.42-.42s-.19-.42-.42-.42h0ZM16.73,21.78c-.07,1.06.34,2.26,1.22,2.89-1.56.73-3.66,1.56-6.24,2.89l-.48-1.23c4.17-3.5,4.87-4.11,5.5-4.56ZM7.66,28.76l2.87-1.91.44,1.14-1.95,1.24c-.14.09-.22.26-.19.43l.39,2.23c-.49.04-.96-.25-1.15-.73l-.64-1.65c-.11-.27,0-.58.24-.74h0ZM9.7,29.79c1.91-1.22,2.2-1.53,6.97-3.62.86-.38,1.61-.71,2.26-1.03,1.73.55,1.6.09,5.87.45-.61,5.37-.46,4.32-.71,5.33-.08.33-.05.68.09.98h-14.12l-.37-2.1ZM25.51,31.89c-.4,0-.7-.38-.6-.77.27-1.08.15-.36.46-3.08h1.3l-.53,2.57c-.05.22.09.44.31.49l1.31.33c.26.06.47.23.59.47h-2.84Z" class="cls-1"></path>
      <path d="M21.16,10.57c.06.83.4,1.59.96,2.2-.38,1.55-.96,2.97-1.73,4.23-.12.2-.06.46.14.58h0c.2.12.46.06.58-.14.75-1.23,1.33-2.59,1.73-4.07.21.14.43.25.67.34l.23.18-.62.62c-.27.27-.07.72.3.72.11,0,.22-.04.3-.12l5.39-5.39c.79-.79,1.23-1.85,1.23-2.97,0-.23-.19-.42-.42-.42s-.42.19-.42.42c0,.9-.35,1.74-.98,2.37l-1.83,1.83c0-.98.07-1.53-.35-2.29-.72-1.27-2.36-1.74-3.68-1.08-.63-1.08-2.28-.93-2.7.25l-.28.8c-.35.98.43,2,1.49,1.94h0ZM25.46,8.87c-.4.55-1.03.88-1.72.88-.61,0-.57.84-.03.84.79,0,1.55-.31,2.11-.86.02.16.02.06.02,2.05l-1.33,1.33c-.55-.07-1.05-.3-1.45-.61l.35-.88c.09-.24-.04-.51-.3-.57-.2-.05-.41.06-.48.25l-.2.5c-.29-.45-.45-.96-.45-1.51,0-.05,0-.04.03-.07.22-.18.38-.42.46-.65.28-.8.34-.92.36-1.15.84-.55,2-.38,2.62.43h0ZM20.46,8.91l.28-.8c.09-.26.34-.42.61-.42.44,0,.76.42.61.82-.27.78-.29.98-.56,1.13-.54.3-1.14-.2-.95-.73ZM19.48,18.98c.18.15.45.12.59-.07.02-.03.04-.05.06-.08.14-.18.11-.45-.07-.59-.18-.14-.45-.11-.59.07,0,0,0,0,0,0-.02.03-.04.05-.06.08-.15.18-.12.44.07.59h0Z" class="cls-1"></path>
    </g>
  </g>
</svg>