<svg viewBox="0 0 40 40" version="1.1" xmlns="http://www.w3.org/2000/svg" data-name="part 1" id="part_1">
  <defs>
    <style>
      .cls-1 {
        fill: #3b626b;
        stroke-width: 0px;
      }
    </style>
  </defs>
  <g data-name="Enhanced energy" id="Enhanced_energy">
    <g>
      <path d="M17.36,8.55h5.27c.24,0,.44-.2.44-.44v-1.76c0-.24-.2-.44-.44-.44h-5.27c-.24,0-.44.2-.44.44v1.76c0,.24.2.44.44.44ZM17.8,6.8h4.39v.88h-4.39v-.88Z" class="cls-1"></path>
      <path d="M16.16,19.45c-.09.15-.08.33.02.47l5.48,7.97c.07.11.19.18.32.19.07,0,.14,0,.2-.03.19-.08.3-.28.27-.48l-1.08-6.15,2.06.18c.17.01.33-.07.42-.22.09-.15.08-.33-.02-.47l-5.48-7.97c-.12-.17-.34-.24-.53-.16-.19.08-.3.28-.27.48l1.08,6.15-2.06-.18c-.17-.01-.33.07-.42.22ZM17.43,20.19l1.7.15c.14.01.27-.04.36-.14.09-.1.13-.24.11-.37l-.83-4.73,3.81,5.54-1.7-.15c-.14-.01-.27.04-.36.14-.09.1-.13.24-.11.37l.83,4.73h0s-3.81-5.54-3.81-5.54Z" class="cls-1"></path>
      <path d="M24.91,7.67h-9.81c-.93,0-1.68.76-1.68,1.68v21.24c0,.93.76,1.68,1.68,1.68h9.81c.93,0,1.68-.76,1.68-1.68V9.36c0-.93-.76-1.68-1.68-1.68ZM25.71,30.6c0,.44-.36.8-.8.8h-9.81c-.44,0-.8-.36-.8-.8V9.36c0-.44.36-.8.8-.8h9.81c.44,0,.8.36.8.8v21.24h0Z" class="cls-1"></path>
    </g>
  </g>
</svg>