<svg viewBox="0 0 40 40" version="1.1" xmlns="http://www.w3.org/2000/svg" data-name="part 2" id="part_2">
  <defs>
    <style>
      .cls-1 {
        fill-rule: evenodd;
      }

      .cls-1, .cls-2 {
        fill: #3b626b;
        stroke-width: 0px;
      }
    </style>
  </defs>
  <g data-name="Circulation 
Improvement" id="Circulation_Improvement">
    <path d="M35.81,23.87c-.08-.13-.19-.23-.34-.28-.14-.04-.29-.03-.42.04l-2.07,1.09.16-.51c.69-2.16.84-4.48.43-6.72-.51-2.78-1.84-5.3-3.83-7.29-4.24-4.24-10.68-5.28-16.02-2.59-.19.09-.31.29-.31.5,0,.09.02.17.06.25.14.28.48.39.75.25,4.92-2.46,10.83-1.51,14.72,2.38,3.56,3.56,4.69,8.7,2.95,13.42l-.16.4-1.47-2.23c-.11-.16-.29-.25-.47-.25-.11,0-.21.03-.31.1-.16.1-.25.28-.25.47,0,.11.03.21.09.3l2.03,3.07c.16.24.48.32.73.19l3.49-1.83c.13-.07.23-.19.27-.33.05-.15.03-.3-.03-.43ZM26.4,31.63c-.06-.13-.18-.23-.32-.28-.15-.05-.29-.04-.43.03-4.91,2.47-10.83,1.51-14.72-2.38-2.41-2.41-3.74-5.6-3.74-8.99,0-1.55.28-3.07.84-4.52l.14-.37,1.65,2.19c.18.25.54.29.79.11.24-.19.29-.54.11-.79l-2.22-2.94c-.17-.23-.49-.29-.74-.14l-3.37,2.04c-.17.1-.27.28-.27.48,0,.1.03.2.08.29.08.13.21.22.35.26.15.03.3.01.43-.07l1.86-1.13-.17.55c-.39,1.31-.59,2.66-.59,4.02,0,.86.08,1.73.24,2.58.52,2.75,1.84,5.24,3.82,7.23,2.66,2.66,6.2,4.06,9.79,4.06,2.12,0,4.25-.48,6.23-1.48.13-.06.23-.18.28-.32.04-.14.03-.3-.04-.43Z" class="cls-1"></path>
    <g id="Page-1">
      <g data-name="024---Heart-Attack" id="_024---Heart-Attack">
        <g id="Shape">
          <path d="M26.72,12.33c-.22-.21-.53-.33-.85-.31-.47.03-1.56.09-2.76.59-.88-.39-1.95-.59-3.21-.59-.85,0-1.59.12-2.22.37,0-.05.02-.09.03-.13.14-.44-.1-.89-.55-1.05l-.96-.33c-.23-.08-.48-.06-.7.04-.21.11-.37.29-.45.52-.02.06-.05.14-.07.23-.07-.05-.15-.1-.22-.15-.21-.13-.46-.18-.71-.11-.24.05-.44.21-.56.42l-.47.84c-.21.38-.11.84.26,1.1.24.17.83.66,1.31,1.71-1.07,1.02-1.68,2.44-1.68,3.92,0,5.57,4.66,9.76,7.68,9.76,1.22,0,2.7-1.12,3.87-2.92,1.31-2.02,2.03-4.56,2.03-7.13,0-1.55-.72-2.9-1.91-3.6.45-.45.98-.75,1.59-.88.53-.12.91-.58.91-1.12v-.35c0-.31-.13-.61-.36-.83ZM25.99,13.16v.35s-.03.04-.06.05c-1.09.24-1.99.86-2.67,1.84-.24.34-.44.72-.6,1.12-.12.28.02.6.3.71.27.12.6-.02.71-.3.07-.17.16-.35.26-.53.92.49,1.46,1.48,1.46,2.71,0,5.17-3.16,8.96-4.8,8.96-2.31,0-6.58-3.58-6.58-8.67,0-2.28,1.79-4.2,3.91-4.2,1.55,0,2.36.5,2.37.5.24.16.57.1.74-.13,1.71-2.28,4.11-2.41,4.9-2.45h.05v.04ZM17.45,13.74c.59-.42,1.41-.63,2.45-.63.7,0,1.34.07,1.9.21-.5.34-.96.76-1.36,1.23-.47-.19-1.31-.45-2.52-.45-.15,0-.31,0-.48.03,0-.14,0-.27.01-.39ZM14.08,13.01l.25-.45c.21.14.4.31.59.5.14.14.35.2.55.14.19-.06.34-.22.38-.43.06-.36.13-.61.18-.79l.57.19c-.19.7-.27,1.45-.25,2.21-.3.11-.59.25-.87.42-.47-.94-1.02-1.49-1.4-1.79Z" class="cls-2"></path>
        </g>
      </g>
    </g>
    <path d="M20.86,26.45c-.16,0-.32-.07-.43-.21-.19-.24-.15-.58.09-.77,2.05-1.64,2.38-4.08,2.38-4.11.04-.3.31-.52.61-.48.3.04.52.31.48.61-.01.12-.37,2.91-2.79,4.84-.1.08-.22.12-.34.12Z" class="cls-2"></path>
    <path d="M15.93,19.99s-.07,0-.11-.01c-.3-.06-.49-.35-.43-.65.24-1.18.95-2.06,2.01-2.49.28-.11.6.02.72.3.11.28-.02.6-.3.72-.5.2-1.14.66-1.35,1.69-.05.26-.28.44-.54.44Z" class="cls-2"></path>
  </g>
</svg>