<svg viewBox="0 0 40 40" version="1.1" xmlns="http://www.w3.org/2000/svg" data-name="part 1" id="part_1">
  <defs>
    <style>
      .cls-1 {
        fill: #3b626b;
        stroke-width: 0px;
      }
    </style>
  </defs>
  <g data-name="Sleeping
Improvement" id="Sleeping_Improvement">
    <g>
      <path d="M17.53,20.11c-.13,0-.26-.05-.36-.15-1.71-1.77-2.67-4.09-2.68-6.53,0-1.31.25-2.58.75-3.78.04-.09,0-.15-.04-.18-.05-.05-.11-.05-.17-.02-2.97,1.76-4.82,4.86-4.97,8.3-.01.27-.24.5-.52.48-.27-.01-.49-.24-.48-.52.16-3.77,2.2-7.18,5.45-9.11.43-.25.95-.21,1.33.12.38.33.5.85.3,1.32-.46,1.07-.68,2.21-.68,3.38.01,2.18.87,4.26,2.4,5.85.19.2.19.51-.01.7-.1.09-.22.14-.35.14Z" class="cls-1"></path>
      <path d="M19.35,29.29s-.03,0-.04,0c-5.14-.42-9.39-4.42-10.12-9.51l-.02-.13c-.04-.27.15-.52.43-.56.27-.04.52.16.56.43l.02.12c.66,4.64,4.54,8.28,9.22,8.67.27.02.48.26.46.54-.02.26-.24.46-.5.46Z" class="cls-1"></path>
      <path d="M27.67,26.26c-.13,0-.26-.05-.35-.15-.19-.2-.19-.51,0-.7,1.21-1.19,2.11-2.68,2.6-4.29.02-.07,0-.12-.06-.16-.04-.03-.1-.05-.17,0-.84.63-1.77,1.12-2.77,1.44-.26.09-.54-.06-.63-.32-.08-.26.06-.54.32-.63.89-.29,1.72-.72,2.48-1.29.4-.3.93-.31,1.34-.02.41.29.58.78.44,1.26-.54,1.78-1.52,3.41-2.85,4.71-.1.1-.22.14-.35.14Z" class="cls-1"></path>
      <path d="M21.99,34.57h-1.89c-.69,0-1.25-.56-1.25-1.25v-11.01c0-.58-.27-1.13-.73-1.49-.33-.26-.65-.55-.95-.86-.12-.12-.16-.29-.13-.46.04-.16.15-.3.31-.36l2.26-.85c.68-.25,1.44-.16,2.03.25.5.34.83.87.92,1.46h1.17c2.44,0,4.42,1.98,4.42,4.42v3.41c0,.27-.22.5-.5.5s-.5-.22-.5-.5v-3.41c0-1.89-1.54-3.43-3.43-3.43h-1.64c-.27,0-.5-.22-.5-.5v-.14c0-.4-.19-.77-.52-1-.33-.23-.74-.28-1.12-.14l-1.51.57c.09.08.19.16.29.24.71.56,1.11,1.39,1.11,2.28v11.01c0,.14.12.26.26.26h1.89c1.23,0,2.23-1,2.23-2.23v-.72c0-.27.22-.5.5-.5h.9c.55,0,1.05-.28,1.33-.75.14-.24.45-.31.68-.17.24.14.31.45.17.68-.46.76-1.29,1.24-2.18,1.24h-.41v.22c0,1.78-1.45,3.23-3.23,3.23Z" class="cls-1"></path>
      <path d="M22.1,24.47c-.27,0-.5-.22-.5-.5v-3.46c0-.27.22-.5.5-.5s.5.22.5.5v3.46c0,.27-.22.5-.5.5Z" class="cls-1"></path>
      <path d="M24.72,31.12c-.27,0-.5-.22-.5-.5v-3.72c0-.27.22-.5.5-.5s.5.22.5.5v3.72c0,.27-.22.5-.5.5Z" class="cls-1"></path>
      <path d="M24.38,17.15h-1.5c-.23,0-.44-.13-.56-.33-.11-.2-.1-.45.02-.65l1.14-1.82h-.85c-.27,0-.5-.22-.5-.5s.22-.5.5-.5h1.5c.23,0,.44.13.56.33.11.2.1.45-.02.65l-1.14,1.82h.85c.27,0,.5.22.5.5s-.22.5-.5.5ZM24.13,14.35h0,0Z" class="cls-1"></path>
      <path d="M22.13,11.11h-1.5c-.23,0-.44-.13-.56-.33s-.11-.45.02-.65l1.14-1.82h-.85c-.27,0-.5-.22-.5-.5s.22-.5.5-.5h1.5c.23,0,.44.13.56.33.11.2.1.45-.02.65l-1.14,1.82h.86c.27,0,.5.22.5.5s-.22.5-.5.5ZM21.88,8.31h0,0Z" class="cls-1"></path>
      <path d="M29.07,13.78h-1.5c-.23,0-.44-.13-.56-.33-.11-.2-.1-.45.02-.65l1.14-1.82h-.86c-.27,0-.5-.22-.5-.5s.22-.5.5-.5h1.5c.23,0,.44.13.56.33s.11.45-.02.65l-1.14,1.82h.85c.27,0,.5.22.5.5s-.22.5-.5.5ZM28.82,10.98h0,0Z" class="cls-1"></path>
    </g>
  </g>
</svg>